<svg width="107" height="27" viewBox="0 0 107 27" fill="none" xmlns="http://www.w3.org/2000/svg">
<path d="M5.38586 17.2972H1.21422V4.98666H5.47001C6.69225 4.98666 7.74217 5.23311 8.61977 5.72601C9.50139 6.2149 10.1786 6.91819 10.6515 7.83587C11.1244 8.75355 11.3608 9.85156 11.3608 11.1299C11.3608 12.4122 11.1224 13.5143 10.6455 14.4359C10.1726 15.3576 9.48936 16.0649 8.59573 16.5578C7.7061 17.0507 6.63614 17.2972 5.38586 17.2972ZM3.4443 15.3677H5.27766C6.13523 15.3677 6.85054 15.2114 7.42358 14.8988C7.99663 14.5822 8.42742 14.1114 8.71595 13.4862C9.00448 12.8571 9.14874 12.0716 9.14874 11.1299C9.14874 10.1882 9.00448 9.40675 8.71595 8.78561C8.42742 8.16047 8.00064 7.69361 7.43561 7.38505C6.87458 7.07247 6.1773 6.91619 5.34378 6.91619H3.4443V15.3677ZM16.0404 17.4835C15.4553 17.4835 14.9283 17.3793 14.4595 17.171C13.9946 16.9586 13.6259 16.646 13.3534 16.2332C13.0849 15.8205 12.9507 15.3116 12.9507 14.7064C12.9507 14.1855 13.0469 13.7547 13.2392 13.4141C13.4316 13.0735 13.6941 12.801 14.0267 12.5966C14.3593 12.3922 14.734 12.2379 15.1507 12.1337C15.5715 12.0255 16.0063 11.9474 16.4551 11.8993C16.9961 11.8432 17.4349 11.7931 17.7715 11.749C18.1081 11.7009 18.3526 11.6288 18.5049 11.5326C18.6611 11.4325 18.7393 11.2782 18.7393 11.0698V11.0337C18.7393 10.5809 18.605 10.2303 18.3366 9.9818C18.0681 9.73334 17.6814 9.60912 17.1764 9.60912C16.6435 9.60912 16.2207 9.72533 15.9081 9.95775C15.5995 10.1902 15.3912 10.4647 15.283 10.7813L13.2512 10.4927C13.4115 9.93171 13.676 9.46285 14.0447 9.08616C14.4134 8.70546 14.8642 8.42094 15.3972 8.2326C15.9301 8.04025 16.5192 7.94407 17.1644 7.94407C17.6092 7.94407 18.052 7.99616 18.4928 8.10036C18.9336 8.20455 19.3364 8.37686 19.7011 8.6173C20.0657 8.85373 20.3583 9.17632 20.5787 9.58507C20.8031 9.99382 20.9153 10.5048 20.9153 11.1179V17.2972H18.8234V16.0289H18.7513C18.6191 16.2853 18.4327 16.5258 18.1923 16.7502C17.9559 16.9706 17.6573 17.1489 17.2967 17.2852C16.94 17.4174 16.5212 17.4835 16.0404 17.4835ZM16.6054 15.8846C17.0422 15.8846 17.4209 15.7984 17.7415 15.6261C18.0621 15.4498 18.3085 15.2174 18.4808 14.9289C18.6571 14.6403 18.7453 14.3257 18.7453 13.9851V12.8971C18.6772 12.9532 18.561 13.0053 18.3967 13.0534C18.2364 13.1015 18.056 13.1436 17.8557 13.1796C17.6553 13.2157 17.4569 13.2478 17.2606 13.2758C17.0642 13.3039 16.8939 13.3279 16.7496 13.348C16.4251 13.392 16.1345 13.4642 15.8781 13.5644C15.6216 13.6645 15.4192 13.8048 15.2709 13.9851C15.1227 14.1614 15.0485 14.3899 15.0485 14.6704C15.0485 15.0711 15.1948 15.3737 15.4873 15.578C15.7799 15.7824 16.1526 15.8846 16.6054 15.8846ZM27.7137 8.06429V9.74737H22.406V8.06429H27.7137ZM23.7164 5.85224H25.8924V14.5201C25.8924 14.8126 25.9365 15.037 26.0246 15.1933C26.1168 15.3456 26.237 15.4498 26.3853 15.5059C26.5336 15.562 26.6979 15.5901 26.8782 15.5901C27.0144 15.5901 27.1387 15.58 27.2509 15.56C27.3671 15.54 27.4552 15.5219 27.5153 15.5059L27.882 17.207C27.7658 17.2471 27.5995 17.2912 27.3831 17.3393C27.1707 17.3873 26.9102 17.4154 26.6017 17.4234C26.0567 17.4394 25.5658 17.3573 25.129 17.177C24.6922 16.9926 24.3455 16.7081 24.0891 16.3234C23.8366 15.9387 23.7124 15.4578 23.7164 14.8808V5.85224ZM32.1904 17.4835C31.6053 17.4835 31.0784 17.3793 30.6095 17.171C30.1447 16.9586 29.776 16.646 29.5035 16.2332C29.235 15.8205 29.1008 15.3116 29.1008 14.7064C29.1008 14.1855 29.1969 13.7547 29.3893 13.4141C29.5816 13.0735 29.8441 12.801 30.1767 12.5966C30.5093 12.3922 30.884 12.2379 31.3008 12.1337C31.7215 12.0255 32.1563 11.9474 32.6052 11.8993C33.1462 11.8432 33.585 11.7931 33.9216 11.749C34.2582 11.7009 34.5026 11.6288 34.6549 11.5326C34.8112 11.4325 34.8893 11.2782 34.8893 11.0698V11.0337C34.8893 10.5809 34.7551 10.2303 34.4866 9.9818C34.2181 9.73334 33.8314 9.60912 33.3265 9.60912C32.7935 9.60912 32.3707 9.72533 32.0582 9.95775C31.7496 10.1902 31.5412 10.4647 31.433 10.7813L29.4013 10.4927C29.5616 9.93171 29.8261 9.46285 30.1948 9.08616C30.5634 8.70546 31.0143 8.42094 31.5472 8.2326C32.0802 8.04025 32.6693 7.94407 33.3145 7.94407C33.7593 7.94407 34.2021 7.99616 34.6429 8.10036C35.0837 8.20455 35.4864 8.37686 35.8511 8.6173C36.2158 8.85373 36.5083 9.17632 36.7287 9.58507C36.9531 9.99382 37.0653 10.5048 37.0653 11.1179V17.2972H34.9735V16.0289H34.9014C34.7691 16.2853 34.5828 16.5258 34.3423 16.7502C34.1059 16.9706 33.8074 17.1489 33.4467 17.2852C33.0901 17.4174 32.6713 17.4835 32.1904 17.4835ZM32.7554 15.8846C33.1922 15.8846 33.5709 15.7984 33.8915 15.6261C34.2121 15.4498 34.4586 15.2174 34.6309 14.9289C34.8072 14.6403 34.8954 14.3257 34.8954 13.9851V12.8971C34.8272 12.9532 34.711 13.0053 34.5467 13.0534C34.3864 13.1015 34.2061 13.1436 34.0057 13.1796C33.8054 13.2157 33.607 13.2478 33.4106 13.2758C33.2143 13.3039 33.044 13.3279 32.8997 13.348C32.5751 13.392 32.2846 13.4642 32.0281 13.5644C31.7716 13.6645 31.5693 13.8048 31.421 13.9851C31.2727 14.1614 31.1986 14.3899 31.1986 14.6704C31.1986 15.0711 31.3449 15.3737 31.6374 15.578C31.9299 15.7824 32.3026 15.8846 32.7554 15.8846Z" fill="white"/>
<path d="M53.56 1.29718L45.2047 9.65248C44.2355 10.6217 44.725 12.2795 46.0653 12.5667L50.5541 13.5285C51.8727 13.8111 52.375 15.4271 51.449 16.4074L42.9567 25.3974" stroke="#0B84FF" stroke-width="2.59436" stroke-linecap="round"/>
<path d="M58.6347 20.7595V8.06429H60.7746V9.59108H60.9009C61.0131 9.36667 61.1714 9.12824 61.3757 8.87577C61.5801 8.6193 61.8566 8.4009 62.2053 8.22057C62.5539 8.03624 62.9987 7.94407 63.5397 7.94407C64.253 7.94407 64.8962 8.1264 65.4692 8.49107C66.0463 8.85173 66.5031 9.38671 66.8397 10.096C67.1804 10.8013 67.3507 11.6669 67.3507 12.6928C67.3507 13.7066 67.1844 14.5682 66.8518 15.2775C66.5192 15.9868 66.0663 16.5278 65.4933 16.9005C64.9202 17.2731 64.271 17.4595 63.5457 17.4595C63.0167 17.4595 62.5779 17.3713 62.2293 17.195C61.8807 17.0187 61.6002 16.8063 61.3878 16.5578C61.1794 16.3054 61.0171 16.0669 60.9009 15.8425H60.8107V20.7595H58.6347ZM60.7686 12.6807C60.7686 13.2778 60.8528 13.8008 61.0211 14.2496C61.1934 14.6984 61.4399 15.0491 61.7605 15.3015C62.085 15.55 62.4778 15.6742 62.9386 15.6742C63.4195 15.6742 63.8222 15.546 64.1468 15.2895C64.4714 15.029 64.7159 14.6744 64.8802 14.2256C65.0485 13.7727 65.1326 13.2578 65.1326 12.6807C65.1326 12.1077 65.0505 11.5988 64.8862 11.1539C64.7219 10.7091 64.4774 10.3605 64.1528 10.108C63.8282 9.85557 63.4235 9.72934 62.9386 9.72934C62.4738 9.72934 62.079 9.85156 61.7544 10.096C61.4298 10.3405 61.1834 10.6831 61.0151 11.1239C60.8508 11.5647 60.7686 12.0836 60.7686 12.6807ZM71.3901 4.98666V17.2972H69.2141V4.98666H71.3901ZM73.6277 17.2972V8.06429H75.8036V17.2972H73.6277ZM74.7217 6.75389C74.377 6.75389 74.0805 6.63968 73.832 6.41126C73.5836 6.17884 73.4594 5.90033 73.4594 5.57574C73.4594 5.24713 73.5836 4.96862 73.832 4.74021C74.0805 4.50778 74.377 4.39157 74.7217 4.39157C75.0703 4.39157 75.3668 4.50778 75.6113 4.74021C75.8597 4.96862 75.984 5.24713 75.984 5.57574C75.984 5.90033 75.8597 6.17884 75.6113 6.41126C75.3668 6.63968 75.0703 6.75389 74.7217 6.75389ZM82.6517 8.06429V9.74737H77.344V8.06429H82.6517ZM78.6544 5.85224H80.8303V14.5201C80.8303 14.8126 80.8744 15.037 80.9626 15.1933C81.0548 15.3456 81.175 15.4498 81.3232 15.5059C81.4715 15.562 81.6358 15.5901 81.8161 15.5901C81.9524 15.5901 82.0766 15.58 82.1888 15.56C82.305 15.54 82.3932 15.5219 82.4533 15.5059L82.82 17.207C82.7038 17.2471 82.5375 17.2912 82.3211 17.3393C82.1087 17.3873 81.8482 17.4154 81.5396 17.4234C80.9946 17.4394 80.5037 17.3573 80.0669 17.177C79.6301 16.9926 79.2835 16.7081 79.027 16.3234C78.7746 15.9387 78.6504 15.4578 78.6544 14.8808V5.85224ZM89.0819 8.06429V9.74737H83.7742V8.06429H89.0819ZM85.0846 5.85224H87.2606V14.5201C87.2606 14.8126 87.3047 15.037 87.3929 15.1933C87.485 15.3456 87.6052 15.4498 87.7535 15.5059C87.9018 15.562 88.0661 15.5901 88.2464 15.5901C88.3827 15.5901 88.5069 15.58 88.6191 15.56C88.7353 15.54 88.8235 15.5219 88.8836 15.5059L89.2503 17.207C89.134 17.2471 88.9677 17.2912 88.7513 17.3393C88.539 17.3873 88.2785 17.4154 87.9699 17.4234C87.4249 17.4394 86.934 17.3573 86.4972 17.177C86.0604 16.9926 85.7138 16.7081 85.4573 16.3234C85.2048 15.9387 85.0806 15.4578 85.0846 14.8808V5.85224ZM94.8901 17.4775C93.9644 17.4775 93.1649 17.2852 92.4917 16.9005C91.8225 16.5117 91.3075 15.9627 90.9469 15.2534C90.5862 14.5401 90.4059 13.7006 90.4059 12.7348C90.4059 11.7851 90.5862 10.9516 90.9469 10.2343C91.3115 9.51294 91.8205 8.95191 92.4737 8.55118C93.1268 8.14644 93.8943 7.94407 94.7759 7.94407C95.3449 7.94407 95.8819 8.03624 96.3868 8.22057C96.8957 8.4009 97.3446 8.68142 97.7333 9.06212C98.126 9.44281 98.4346 9.9277 98.659 10.5168C98.8834 11.1018 98.9956 11.7991 98.9956 12.6086V13.2758H91.4277V11.8091H96.9098C96.9058 11.3924 96.8156 11.0217 96.6393 10.6971C96.463 10.3685 96.2165 10.11 95.8999 9.92169C95.5873 9.73334 95.2227 9.63917 94.8059 9.63917C94.3611 9.63917 93.9704 9.74737 93.6338 9.96376C93.2972 10.1762 93.0347 10.4567 92.8463 10.8053C92.662 11.1499 92.5678 11.5286 92.5638 11.9414V13.2217C92.5638 13.7587 92.662 14.2196 92.8584 14.6043C93.0547 14.985 93.3292 15.2775 93.6819 15.4819C94.0345 15.6822 94.4473 15.7824 94.9201 15.7824C95.2367 15.7824 95.5232 15.7383 95.7797 15.6502C96.0362 15.558 96.2586 15.4238 96.4469 15.2474C96.6353 15.0711 96.7775 14.8527 96.8737 14.5922L98.9054 14.8207C98.7772 15.3576 98.5327 15.8265 98.1721 16.2272C97.8154 16.624 97.3586 16.9325 96.8016 17.1529C96.2446 17.3693 95.6074 17.4775 94.8901 17.4775ZM100.836 17.2972V8.06429H102.946V9.6031H103.042C103.211 9.07013 103.499 8.65938 103.908 8.37085C104.321 8.07831 104.792 7.93205 105.321 7.93205C105.441 7.93205 105.575 7.93806 105.723 7.95008C105.876 7.95809 106.002 7.97212 106.102 7.99216V9.99382C106.01 9.96176 105.864 9.93371 105.663 9.90967C105.467 9.88161 105.277 9.86759 105.092 9.86759C104.696 9.86759 104.339 9.95375 104.022 10.1261C103.71 10.2944 103.463 10.5288 103.283 10.8293C103.103 11.1299 103.012 11.4765 103.012 11.8693V17.2972H100.836Z" fill="white"/>
</svg>
